HIERARCHY
ROOT hip
{
  OFFSET 0 0 0
  CHANNELS 6 Xposition Yposition Zposition Zrotation Yrotation Xrotation
  JOINT abdomen
  {
    OFFSET 0 20.6881 -0.73152
    CHANNELS 3 Zrotation Xrotation Yrotation
    JOINT chest
    {
      OFFSET 0 11.7043 -0.48768
      CHANNELS 3 Zrotation Xrotation Yrotation
      JOINT neck
      {
        OFFSET 0 22.1894 -2.19456
        CHANNELS 3 Zrotation Xrotation Yrotation
        JOINT head
        {
          OFFSET -0.24384 7.07133 1.2192
          CHANNELS 3 Zrotation Xrotation Yrotation
          JOINT leftEye
          {
            OFFSET 4.14528 8.04674 8.04672
            CHANNELS 3 Zrotation Xrotation Yrotation
            End Site
            {
              OFFSET 1 0 0
            }
          }
          JOINT rightEye
          {
            OFFSET -3.6576 8.04674 8.04672
            CHANNELS 3 Zrotation Xrotation Yrotation
            End Site
            {
              OFFSET 1 0 0
            }
          }
        }
      }
      JOINT rCollar
      {
        OFFSET -2.68224 19.2634 -4.8768
        CHANNELS 3 Zrotation Xrotation Yrotation
        JOINT rShldr
        {
          OFFSET -8.77824 -1.95073 1.46304
          CHANNELS 3 Zrotation Xrotation Yrotation
          JOINT rForeArm
          {
            OFFSET -28.1742 -1.7115 0.48768
            CHANNELS 3 Zrotation Xrotation Yrotation
            JOINT rHand
            {
              OFFSET -22.5879 0.773209 7.07136
              CHANNELS 3 Zrotation Xrotation Yrotation
              JOINT rThumb1
              {
                OFFSET -1.2192 -0.487915 3.41376
                CHANNELS 3 Zrotation Xrotation Yrotation
                JOINT rThumb2
                {
                  OFFSET -3.37035 -0.52449 3.41376
                  CHANNELS 3 Zrotation Xrotation Yrotation
                  End Site
                  {
                    OFFSET -1.78271 -1.18214 1.43049
                  }
                }
              }
              JOINT rIndex1
              {
                OFFSET -7.75947 0.938293 5.60832
                CHANNELS 3 Zrotation Xrotation Yrotation
                JOINT rIndex2
                {
                  OFFSET -2.54057 -0.884171 1.56538
                  CHANNELS 3 Zrotation Xrotation Yrotation
                  End Site
                  {
                    OFFSET -1.62519 -0.234802 1.16502
                  }
                }
              }
              JOINT rMid1
              {
                OFFSET -8.24714 1.18213 3.41376
                CHANNELS 3 Zrotation Xrotation Yrotation
                JOINT rMid2
                {
                  OFFSET -3.10165 -0.590103 1.0647
                  CHANNELS 3 Zrotation Xrotation Yrotation
                  End Site
                  {
                    OFFSET -2.48547 -0.328903 0.83742
                  }
                }
              }
              JOINT rRing1
              {
                OFFSET -8.82822 0.546677 1.51678
                CHANNELS 3 Zrotation Xrotation Yrotation
                JOINT rRing2
                {
                  OFFSET -2.60934 -0.819778 -0.0198488
                  CHANNELS 3 Zrotation Xrotation Yrotation
                  End Site
                  {
                    OFFSET -2.33842 -0.294052 0.168128
                  }
                }
              }
              JOINT rPinky1
              {
                OFFSET -8.27202 -0.0477905 -0.4584
                CHANNELS 3 Zrotation Xrotation Yrotation
                JOINT rPinky2
                {
                  OFFSET -1.82734 -0.647385 -0.700984
                  CHANNELS 3 Zrotation Xrotation Yrotation
                  End Site
                  {
                    OFFSET -1.69225 -0.51767 -0.607171
                  }
                }
              }
            }
          }
        }
      }
      JOINT lCollar
      {
        OFFSET 2.68224 19.2634 -4.8768
        CHANNELS 3 Zrotation Xrotation Yrotation
        JOINT lShldr
        {
          OFFSET 8.77824 -1.95073 1.46304
          CHANNELS 3 Zrotation Xrotation Yrotation
          JOINT lForeArm
          {
            OFFSET 28.1742 -1.7115 0.48768
            CHANNELS 3 Zrotation Xrotation Yrotation
            JOINT lHand
            {
              OFFSET 22.5879 0.773209 7.07136
              CHANNELS 3 Zrotation Xrotation Yrotation
              JOINT lThumb1
              {
                OFFSET 1.2192 -0.487915 3.41376
                CHANNELS 3 Zrotation Xrotation Yrotation
                JOINT lThumb2
                {
                  OFFSET 3.37035 -0.52449 3.41376
                  CHANNELS 3 Zrotation Xrotation Yrotation
                  End Site
                  {
                    OFFSET 1.78271 -1.18214 1.43049
                  }
                }
              }
              JOINT lIndex1
              {
                OFFSET 7.75947 0.938293 5.60832
                CHANNELS 3 Zrotation Xrotation Yrotation
                JOINT lIndex2
                {
                  OFFSET 2.54057 -0.884171 1.56538
                  CHANNELS 3 Zrotation Xrotation Yrotation
                  End Site
                  {
                    OFFSET 1.62519 -0.234802 1.16502
                  }
                }
              }
              JOINT lMid1
              {
                OFFSET 8.24714 1.18213 3.41376
                CHANNELS 3 Zrotation Xrotation Yrotation
                JOINT lMid2
                {
                  OFFSET 3.10165 -0.590103 1.0647
                  CHANNELS 3 Zrotation Xrotation Yrotation
                  End Site
                  {
                    OFFSET 2.48547 -0.328903 0.83742
                  }
                }
              }
              JOINT lRing1
              {
                OFFSET 8.82822 0.546677 1.51678
                CHANNELS 3 Zrotation Xrotation Yrotation
                JOINT lRing2
                {
                  OFFSET 2.60934 -0.819778 -0.0198488
                  CHANNELS 3 Zrotation Xrotation Yrotation
                  End Site
                  {
                    OFFSET 2.33842 -0.294052 0.168128
                  }
                }
              }
              JOINT lPinky1
              {
                OFFSET 8.27202 -0.0477905 -0.4584
                CHANNELS 3 Zrotation Xrotation Yrotation
                JOINT lPinky2
                {
                  OFFSET 1.82734 -0.647385 -0.700984
                  CHANNELS 3 Zrotation Xrotation Yrotation
                  End Site
                  {
                    OFFSET 1.69225 -0.51767 -0.607171
                  }
                }
              }
            }
          }
        }
      }
    }
  }
  JOINT rButtock
  {
    OFFSET -8.77824 4.35084 1.2192
    CHANNELS 3 Zrotation Xrotation Yrotation
    JOINT rThigh
    {
      OFFSET 0 -1.70687 -2.19456
      CHANNELS 3 Zrotation Xrotation Yrotation
      JOINT rShin
      {
        OFFSET 0 -36.8199 0.73152
        CHANNELS 3 Zrotation Xrotation Yrotation
        JOINT rFoot
        {
          OFFSET 0.73152 -45.1104 -5.12064
          CHANNELS 3 Zrotation Xrotation Yrotation
          End Site
          {
            OFFSET -1.1221 -3.69964 12.103
          }
        }
      }
    }
  }
  JOINT lButtock
  {
    OFFSET 8.77824 4.35084 1.2192
    CHANNELS 3 Zrotation Xrotation Yrotation
    JOINT lThigh
    {
      OFFSET 0 -1.70687 -2.19456
      CHANNELS 3 Zrotation Xrotation Yrotation
      JOINT lShin
      {
        OFFSET 0 -36.8199 0.73152
        CHANNELS 3 Zrotation Xrotation Yrotation
        JOINT lFoot
        {
          OFFSET -0.73152 -45.1104 -5.12064
          CHANNELS 3 Zrotation Xrotation Yrotation
          End Site
          {
            OFFSET 1.1221 -3.69964 12.103
          }
        }
      }
    }
  }
}
MOTION
Frames:	8
Frame Time:	0.00833333
0.000000 0.000000 0.000000 3.036474 -0.075562 -2.498777 0.330876 -1.588464 -3.236963 -2.079323 4.170788 -1.016561 2.796712 0.740631 1.459434 0.277387 2.646976 -3.848990 -4.391380 -2.099346 1.882911 4.041326 4.870314 -0.807291 0.719432 -3.382148 0.563471 2.828713 2.030717 4.412499 4.139365 -3.041679 -4.700716 -2.882123 4.403588 1.080992 4.619493 3.112610 -0.399714 -4.659687 1.709960 -0.215678 -1.550904 -0.549077 -3.064188 -3.220610 4.164632 1.073816 4.384558 -0.723905 2.730017 -1.229203 -1.741491 0.440348 -3.626246 2.827626 3.294096 -0.612531 0.280555 3.930977 4.086981 -3.242353 4.808200 1.752440 -0.188904 -1.308619 -4.478613 -3.580244 4.115783 2.615687 3.385717 -4.513178 4.882487 -3.332420 -4.268403 -1.080842 1.386033 3.071465 -3.220186 -2.907945 4.225788 -2.837397 -3.247794 -3.446134 -4.787500 2.362552 2.978128 1.190128 -4.970555 -0.752240 3.822207 2.572222 -0.091955 2.438446 -3.989552 1.924066 -0.735129 -3.107772 2.594292 0.227191 1.940625 -2.637669 -1.781548 1.648301 -1.591694 4.738609 0.236125 -2.476372 3.046565 1.118961 3.020004 -0.194375 -1.478363 -4.796912 -4.526056 -3.768922 4.856602 2.105733 -1.880688 0.821374 0.617040 -3.102565 -4.514721 -0.575763 1.233512 1.119266 -2.228763 -1.892082 1.331093 2.680977 -3.065580 3.362386
0.000100 62.185200 0.059200 -1.099595 -92.783183 4.476055 -1.947452 5.386168 0.392920 6.981782 1.863276 -59.448840 -9.697402 -7.826402 -129.772379 24.876674 -24.164526 36.264534 48.760824 1.027248 -9.913045 18.250562 -16.135237 -77.857378 -51.883475 -85.179842 -149.627236 -157.003041 29.579123 167.103548 -0.960932 71.659938 167.837723 -175.435833 56.184458 76.756733 9.907195 -11.877639 42.470332 174.031813 10.121232 -89.814809 157.301769 28.489137 -123.140330 -21.917881 35.441429 -85.622408 -47.285765 -0.494129 -115.363668 138.230511 -52.502170 119.232408 95.617328 16.613575 -81.563386 4.702848 -34.257349 -8.728093 26.794702 14.651980 -68.508377 -14.560064 -31.997917 -9.099654 78.374116 -47.438592 -173.532795 168.751902 -44.203412 -172.825663 1.447898 56.502278 -166.425243 -179.242441 27.714893 -107.093481 -15.168706 -22.990200 -18.690614 -167.800656 -66.545812 -103.556078 154.185070 2.191843 -84.094823 78.342705 42.824048 -69.279311 -11.848789 -19.699904 -29.384696 98.223348 81.766492 -57.727438 -94.843038 -11.727184 78.252625 156.336849 -54.535844 -168.793637 50.757790 42.236368 103.806044 152.402741 48.133706 152.149604 19.224455 -51.752527 21.078186 0.974260 50.866216 -9.551460 -1.754877 -9.382746 1.407911 70.859091 -26.898960 -102.227357 -2.458799 -47.804102 0.126574 4.596430 49.226383 -0.910638 9.727947 -5.404876 71.026017 -4.775046 -73.155305 174.672801
0.106400 52.398900 -0.133100 -163.816258 70.497976 -162.082048 -2.550119 23.597511 70.640401 -8.409777 -3.397982 -62.998828 4.526080 23.266095 105.635690 -37.643960 12.515620 -72.861694 18.496792 2.463933 -13.367798 8.428623 -0.908729 3.649122 -148.341359 22.852431 150.738952 -57.048583 31.499542 20.379472 -164.347926 -9.619017 -69.421416 -9.683425 -1.988328 2.144798 165.881010 -36.418987 85.093116 -173.832076 -14.695382 93.424461 -19.310943 35.521704 18.166174 -170.482376 -37.510155 149.658421 0.614444 5.990984 0.061967 3.840849 14.201314 -5.087538 -145.739473 -5.537002 -176.475959 -139.725820 2.503945 175.460352 11.183017 31.299520 16.029453 -119.334660 -37.794937 -94.391780 152.482724 -10.537734 -165.287902 37.032410 -9.003153 27.622495 4.714873 -21.322307 137.766119 -169.766672 -21.682172 -139.581656 171.164949 -8.877588 -94.636214 105.931002 10.242297 -55.813086 -73.476011 -80.366591 -26.174185 167.604364 -16.312451 -76.549766 126.170008 50.480595 -107.392375 -18.214882 13.843691 -17.270591 152.098735 7.550033 -179.265736 -31.414950 66.554878 26.657758 -7.654484 -41.352490 6.293562 39.868519 -18.331497 14.132006 -2.992678 -3.496730 -0.177365 -42.214643 -37.423906 -117.367122 -86.357130 10.131239 177.872490 -32.092403 -38.571003 -95.120371 -9.387924 0.526011 -2.255712 97.491857 -63.480165 0.014281 -95.361322 21.593006 81.479270 -128.934346 -33.335448 -9.554964
-0.010500 45.109100 -0.293300 -165.572284 74.227349 -157.166473 -4.965645 15.760045 -153.591517 6.850603 8.980995 170.546970 17.668085 24.887694 141.345073 -14.194884 35.535193 -114.513574 4.044996 6.362992 41.373383 27.712955 -4.002564 -0.991286 -155.833489 4.862681 164.560582 -45.612557 -29.233832 -5.675596 -96.154640 47.637446 -57.129684 151.414014 -59.520084 128.029196 -172.498853 -1.613280 97.889094 23.746477 -72.252337 51.476507 22.700801 -47.301426 -7.375823 -7.373539 -15.209380 -17.009929 -1.139263 -20.439231 -5.145073 -88.639682 47.108741 74.137246 -23.168036 -17.505699 -10.756863 -129.854633 -47.953618 -163.844608 -19.231121 -30.545264 5.488789 -45.451938 -12.294520 -54.950248 155.119189 -3.201799 -157.079242 -147.422286 1.930697 179.393894 -167.587088 54.340545 -43.049104 182.026565 20.159420 -141.955478 167.922863 -5.176695 -100.022327 75.883870 17.439115 -22.792191 -135.450061 -69.525116 -95.830853 7.211327 19.920908 -3.622886 166.970189 -3.362656 -146.437063 21.724581 56.924560 -26.243973 11.749515 4.344669 -2.040867 150.918574 0.393516 -161.315625 -28.690829 62.745841 -19.339917 172.224306 38.956003 146.199642 -30.059117 -3.473286 -17.170568 -18.085789 -49.463062 -174.558007 -123.748925 -53.709642 3.412483 125.607732 25.855579 -17.162421 -176.761507 73.391690 9.382451 -144.191260 -12.552098 79.021483 106.336006 -1.027377 -22.969856 -144.268564 35.875597 39.117547
-0.155800 41.853000 -0.172600 -172.284622 80.218643 -166.915083 0.337104 14.140745 -41.393017 3.755990 -6.701424 67.028601 11.737104 26.996538 142.803212 -25.342915 39.778667 -109.336294 28.404904 -1.112181 13.535868 -8.645891 4.688997 -19.756667 -154.850949 -10.582327 157.945140 -36.350472 2.525059 -19.209760 25.537761 1.150425 -157.534078 -173.908950 7.953633 141.712730 162.312841 -35.148317 92.708586 -169.256180 -70.310000 161.747388 12.211885 -3.383494 -5.585237 -139.497763 -4.829152 92.385782 -174.674103 -52.231626 145.982047 -133.899950 -5.076655 156.497969 -151.864484 6.904503 163.730468 -139.118371 19.634871 143.096503 -9.870549 -23.013630 8.638981 -15.097681 -7.502302 -36.145819 164.135909 -63.983875 -173.091332 98.906695 -39.989544 96.044389 181.444076 0.699118 63.871032 7.640518 -4.860249 4.708452 172.019660 7.615177 -94.055871 -22.912339 -68.947604 -36.758413 -3.373574 -14.509522 1.991345 -61.921638 -66.422185 -17.759454 156.800355 21.561924 -140.112877 1.424274 -25.315753 18.166971 147.581793 24.720594 -167.295687 155.700060 -6.052337 -166.605884 161.203664 -17.672964 124.220270 -176.612578 31.860873 102.505317 -155.234010 80.031889 -18.638239 129.471620 -11.005992 -101.763196 -112.975736 -27.416617 148.289971 -21.481570 10.004949 -80.984324 -36.728844 19.022958 -31.600751 130.077985 -22.633605 76.846803 159.885220 70.102509 -50.858559 -63.438718 -48.046231 -150.818079
-0.287500 42.628100 -0.596900 -169.867567 86.647148 -157.964637 -8.955373 18.308994 6.585541 4.318131 -17.935198 21.936750 7.815185 9.403814 49.153515 -18.446187 -11.109886 -20.730283 13.468870 4.230726 2.475464 14.417537 1.105841 36.495912 -149.772870 -11.446588 172.433625 135.850817 36.706991 -151.022641 -51.299786 -14.081486 142.645817 32.469693 -64.184342 25.537343 0.966134 -8.517902 -5.933962 -120.017518 -11.349649 107.018076 -48.206997 41.307083 41.284673 -5.344806 -2.634868 -3.054417 -162.685131 -1.442544 143.131604 -132.265166 72.606859 122.121152 -10.849647 -20.273292 -2.966026 -140.454253 -22.138110 -173.802626 -141.225405 -26.862354 -127.096664 -153.574622 -39.387169 -115.286193 151.486500 -5.068806 -164.605644 -135.535898 38.463138 166.987942 4.151129 -7.806929 -108.532801 9.139904 -22.328200 1.974625 0.145064 -3.254183 2.188853 132.278507 -46.066292 -110.563702 -9.196070 -15.177798 4.200720 176.943482 0.651925 -104.204975 165.522840 -52.906237 -146.306127 167.690677 10.888318 -142.711265 156.439976 36.717366 -175.495094 -0.758017 19.072422 -1.856668 4.133711 -5.203778 0.228559 -61.948827 70.953217 22.235910 -96.906753 44.110975 -47.605983 94.738662 -25.361585 -3.154211 -125.785217 57.249373 63.116854 83.674441 36.453025 14.615964 138.683605 57.440806 39.817685 -126.296263 -20.241098 -8.996614 -148.755554 66.198789 37.179434 79.453067 -48.195514 154.296786
-0.582300 44.030300 -0.945800 -168.989545 82.148702 -166.804200 -3.675803 19.283560 -1.846445 -0.242147 -12.228494 26.296457 10.739444 22.916017 130.055371 -19.647508 20.742971 -77.517475 10.624400 -2.421749 -10.795531 16.643789 3.784894 24.947484 -156.551500 -50.096566 171.049867 -107.880888 -39.723057 -112.777068 -104.094962 -76.346715 0.843319 -2.160494 16.278282 -5.357460 -138.400680 18.328212 72.708942 -142.982208 -15.719112 64.927595 -20.044382 23.146420 15.269585 -179.070136 -18.172431 83.130578 -37.206798 47.009028 24.716248 -0.676356 13.950599 11.653857 5.728012 -12.986556 5.395937 8.510912 -33.429882 9.731148 -40.506690 -44.014698 -21.601178 -136.297032 19.076421 -91.215549 4.282770 24.846733 -3.121231 -59.074499 1.516782 -49.925159 31.926213 -51.860618 -88.356611 6.513266 -30.193800 4.674176 162.986785 -1.430973 -92.413386 -19.231853 -62.400238 -9.526086 -9.568024 -1.911572 -8.403053 171.640046 2.508496 -126.867305 16.060214 29.151303 -13.897659 -7.287341 62.095234 -6.669537 4.411291 31.598917 -1.664144 162.299293 -6.346043 -177.048514 -9.561982 -9.698734 -1.852401 4.428525 11.726121 16.133596 8.423427 4.992276 8.544779 -104.279258 -33.409725 165.938880 -123.752596 -20.777216 -101.714894 8.044354 37.903483 165.892554 -5.520699 6.898960 -8.954701 110.437784 -38.958878 -169.548033 105.436315 -19.455275 -110.811039 34.995183 -8.160053 21.999699
-0.843000 44.302900 -1.089800 -171.093997 84.629032 -160.447905 -6.036155 9.869414 -171.356216 6.344010 9.886046 -168.820930 6.504620 10.980720 16.090260 -5.585947 -23.014490 27.115559 5.580916 -3.636551 -3.114916 23.164355 1.734293 0.784713 -126.944515 50.881177 139.495088 -63.568799 37.194853 35.054818 -107.965721 33.191300 -68.775918 32.096036 -55.678105 11.382921 -160.034731 11.303351 78.917216 128.363203 -42.075145 66.552224 -108.991943 43.359120 80.650031 -18.080272 -1.111477 -8.649623 -176.747733 -25.975520 136.055275 -168.744588 9.345698 153.980584 11.997425 -18.568326 6.865838 53.819591 -71.975986 48.019970 -15.524859 -22.548648 9.848363 66.687128 20.118834 -19.810170 6.054589 13.500583 5.779100 108.034340 12.284848 -142.201698 -11.641385 -13.623369 137.551112 170.144879 6.466777 -141.206148 178.357824 -14.667273 -79.363811 -151.320265 -60.789236 -102.964970 -35.640870 -41.623145 -4.717547 164.447989 18.891763 -106.636808 173.485251 -45.238078 -149.635899 0.579229 -47.536336 6.474428 -8.072899 -4.907499 1.905537 164.395240 34.424283 -154.319457 144.445761 43.097245 155.883640 -18.708439 36.800202 -17.105754 57.518590 29.962060 33.159409 -139.717011 -5.359751 -118.505947 -114.024070 21.701526 -98.579342 100.033048 19.351551 161.569872 -9.854103 4.093788 -7.221823 112.370005 -50.910857 18.212577 -112.700735 24.239375 142.453051 -156.982528 17.538100 35.063625
